<?xml version="1.0" encoding="UTF-8"?>
<svg width="700pt" height="700pt" version="1.1" fill="#fa6e50" viewBox="0 0 700 700" xmlns="http://www.w3.org/2000/svg">
 <path d="m598.89 210h-497.78c-4.3555 0-7.7773 3.4219-7.7773 7.7773v31.109c0 4.3555 3.4219 7.7773 7.7773 7.7773h51.488l-27.688 83.066c-0.77734 2.332-0.46484 4.9766 1.0898 7 1.3984 2.0234 3.7344 3.2695 6.2227 3.2695h31.109c3.4219 0 6.3789-2.1797 7.3125-5.2891l29.398-88.043h299.91l29.398 88.043c1.0898 3.1094 4.043 5.2891 7.3125 5.2891h31.109c2.4883 0 4.8203-1.2461 6.3789-3.2656 1.3984-2.0234 1.8672-4.668 1.0898-7l-27.688-83.066h51.336c4.3555 0 7.7773-3.4219 7.7773-7.7773v-31.109c0-4.3594-3.4219-7.7812-7.7773-7.7812zm-441.16 124.45h-14.777l25.977-77.777h14.777zm399.31 0h-14.777l-25.977-77.777h14.777zm34.066-93.336h-482.22v-15.555h482.22z"/>
</svg>
