<?xml version="1.0" standalone="no"?>
<!DOCTYPE svg PUBLIC "-//W3C//DTD SVG 20010904//EN"
 "http://www.w3.org/TR/2001/REC-SVG-20010904/DTD/svg10.dtd">
<svg version="1.0" xmlns="http://www.w3.org/2000/svg"
 width="700.000000pt" height="700.000000pt" viewBox="0 0 700.000000 700.000000"
 preserveAspectRatio="xMidYMid meet">
<metadata>
Created by potrace 1.14, written by Peter Selinger 2001-2017
</metadata>
<g transform="translate(0.000000,700.000000) scale(0.100000,-0.100000)"
fill="#000000" stroke="none">
<path d="M977 4893 c-37 -10 -45 -49 -43 -235 1 -244 -28 -223 312 -224 145
-1 267 -4 270 -7 3 -3 -56 -192 -132 -419 -76 -227 -137 -424 -136 -438 1 -14
13 -35 27 -47 25 -22 34 -23 204 -23 155 0 182 2 200 18 16 12 63 140 172 467
l149 450 1500 0 1499 0 106 -320 c58 -176 110 -329 114 -340 5 -11 24 -67 42
-125 50 -155 42 -150 255 -150 148 0 180 3 205 17 28 17 33 26 31 69 0 12 -62
205 -137 429 -74 224 -133 410 -130 413 3 3 124 6 270 6 339 1 310 -20 311
224 2 191 -5 224 -48 236 -26 7 -5014 6 -5041 -1z m4926 -152 c4 0 7 -35 7
-76 l0 -75 -2410 0 -2410 0 0 74 c0 41 4 76 10 78 9 3 4783 2 4803 -1z m-4073
-316 c0 -5 -57 -181 -127 -390 l-126 -380 -66 1 c-36 1 -69 2 -73 3 -3 0 43
148 103 329 61 180 112 332 113 337 34 118 25 110 123 110 29 0 53 -4 53 -10z
m3482 -6 c24 -39 255 -759 245 -760 -7 -1 -39 -2 -72 -3 l-60 -1 -130 385
-130 385 30 5 c55 9 108 4 117 -11z"/>
</g>
</svg>
